<svg width="25" height="25" viewBox="0 0 25 25" fill="none" xmlns="http://www.w3.org/2000/svg">
<path fill-rule="evenodd" clip-rule="evenodd" d="M12.4465 0C11.9222 0 11.3978 0.0399944 10.8815 0.0953196C10.3658 0.928543 7.50579 5.87322 10.7073 11.6671C10.7707 11.7618 10.8181 11.8651 10.8661 11.9604C11.1837 11.8098 11.5172 11.6671 11.8428 11.4765C13.1217 10.7619 14.3605 10.294 15.552 10.016C14.2892 5.99987 15.2345 2.54766 16.1084 0.539928C14.9483 0.182641 13.7174 0 12.4465 0Z" fill="#00B4E8"/>
<path fill-rule="evenodd" clip-rule="evenodd" d="M8.07035 0.793884C3.73334 2.405 0.532467 6.37314 0.0161133 11.1352L0.166879 11.2305C0.32166 11.3338 2.74466 12.9736 6.21106 12.9736C7.00829 12.9736 7.8602 12.8869 8.75349 12.675C6.02093 7.7063 7.03763 3.27022 8.07035 0.793884Z" fill="#00B4E8"/>
<path fill-rule="evenodd" clip-rule="evenodd" d="M18.1579 1.38916C17.4107 3.0716 16.5374 6.13519 17.7763 9.70672C18.0118 9.69405 18.2439 9.68806 18.4727 9.68806C21.24 9.68806 23.5149 10.5746 24.9012 11.2858C24.4803 6.96042 21.8511 3.28624 18.1579 1.38916Z" fill="#3264FF"/>
<path fill-rule="evenodd" clip-rule="evenodd" d="M16.4019 12.1031C15.2898 12.3177 14.1143 12.7223 12.9149 13.3969C12.5259 13.6189 12.137 13.8095 11.7634 13.9761C13.4472 18.7855 11.8748 22.897 10.8101 24.8887C11.3424 24.96 11.8982 25 12.4545 25C13.8842 25 15.2665 24.746 16.5454 24.3094C17.4827 22.7616 19.7382 18.0716 16.7275 12.7383C16.6088 12.5237 16.4973 12.3097 16.4019 12.1031Z" fill="#00B4E8"/>
<path fill-rule="evenodd" clip-rule="evenodd" d="M0 13.6668C0.460313 18.6982 3.90805 22.865 8.55459 24.3807C9.34914 23.0949 11.2631 19.2934 9.67471 14.722C8.4672 15.048 7.31573 15.1746 6.24299 15.1746C3.47107 15.1746 1.24686 14.3014 0 13.6668Z" fill="#00B4E8"/>
<path fill-rule="evenodd" clip-rule="evenodd" d="M18.7852 11.9051C21.0727 16.1585 20.5964 20.048 19.6984 22.6823C22.5344 20.6586 24.5044 17.4763 24.8774 13.8255C24.2736 13.4209 21.9387 11.9924 18.7852 11.9051Z" fill="#3264FF"/>
</svg>
