<?xml version="1.0" standalone="no"?>
<!DOCTYPE svg PUBLIC "-//W3C//DTD SVG 20010904//EN"
 "http://www.w3.org/TR/2001/REC-SVG-20010904/DTD/svg10.dtd">
<svg version="1.0" xmlns="http://www.w3.org/2000/svg"
 width="252.000000pt" height="252.000000pt" viewBox="0 0 252.000000 252.000000"
 preserveAspectRatio="xMidYMid meet">

<g transform="translate(0.000000,252.000000) scale(0.100000,-0.100000)"
fill="#000000" stroke="none">
<path d="M1802 2288 c-51 -155 -65 -253 -59 -418 3 -109 11 -167 29 -235 l24
-90 34 3 c132 11 417 -46 579 -117 52 -22 97 -38 99 -36 8 8 -28 182 -54 261
-60 178 -154 333 -288 472 -94 98 -183 168 -277 221 l-56 31 -31 -92z"/>
<path d="M1928 1264 c42 -84 90 -224 114 -334 39 -176 27 -438 -28 -624 -7
-27 -12 -51 -9 -54 7 -7 94 70 175 155 162 169 281 409 320 642 14 87 19 80
-100 141 -130 65 -278 108 -438 125 l-63 7 29 -58z"/>
</g>
</svg>
